<?xml version="1.0" standalone="no"?>
<!DOCTYPE svg PUBLIC "-//W3C//DTD SVG 20010904//EN"
 "http://www.w3.org/TR/2001/REC-SVG-20010904/DTD/svg10.dtd">
<svg version="1.0" xmlns="http://www.w3.org/2000/svg"
 width="768.000000pt" height="768.000000pt" viewBox="0 0 768.000000 768.000000"
 preserveAspectRatio="xMidYMid meet">

<g transform="translate(0.000000,768.000000) scale(0.100000,-0.100000)"
fill="#000000" stroke="none">
<path d="M0 3840 l0 -3840 3840 0 3840 0 0 3840 0 3840 -3840 0 -3840 0 0
-3840z m3994 2165 c27 -8 61 -15 75 -15 29 0 140 -32 216 -62 147 -60 291
-148 391 -241 61 -56 174 -187 174 -201 0 -4 15 -26 34 -49 19 -23 37 -54 41
-69 4 -15 13 -32 21 -39 8 -6 14 -19 14 -28 0 -9 9 -29 20 -46 11 -16 20 -43
20 -58 0 -16 9 -40 20 -54 15 -19 20 -41 20 -82 0 -37 7 -69 20 -94 18 -33 20
-56 20 -207 0 -138 -3 -177 -16 -202 -9 -17 -19 -59 -22 -92 -3 -34 -13 -77
-23 -96 -11 -19 -19 -43 -19 -53 0 -15 -17 -54 -52 -117 -4 -8 -15 -32 -24
-52 -9 -21 -20 -38 -25 -38 -5 0 -9 -7 -9 -15 0 -8 -9 -23 -20 -32 -11 -10
-20 -23 -20 -29 0 -25 -159 -204 -181 -204 -5 0 -9 -7 -9 -15 0 -9 -7 -18 -16
-22 -9 -3 -33 -21 -53 -40 -20 -18 -46 -36 -58 -39 -12 -3 -24 -12 -27 -20 -3
-8 -12 -14 -19 -14 -8 0 -22 -9 -32 -20 -10 -11 -23 -20 -30 -20 -6 0 -39 -14
-73 -31 -68 -33 -203 -79 -236 -79 -12 0 -39 -7 -61 -15 -29 -10 -91 -14 -235
-15 -171 0 -203 3 -253 20 -31 11 -71 20 -90 20 -18 0 -41 6 -52 14 -11 7 -35
17 -54 21 -18 4 -60 22 -91 41 -32 19 -62 34 -68 34 -5 0 -53 30 -108 66 -113
75 -241 195 -322 304 -59 79 -157 260 -172 320 -5 19 -15 55 -23 80 -8 25 -22
79 -32 120 -32 143 -9 495 40 605 7 17 16 41 20 55 7 25 85 187 108 225 18 29
81 114 119 159 28 34 58 63 148 147 15 15 113 83 166 116 19 12 119 61 179 87
58 25 160 55 215 62 30 3 64 10 75 15 37 14 315 10 369 -6z m-1478 -2761 c-5
-37 -3 -49 11 -59 25 -18 7 -37 -28 -30 -18 4 -36 2 -44 -5 -22 -18 -36 -2
-33 37 1 24 -3 38 -15 44 -31 18 -18 29 27 23 36 -5 47 -3 62 14 27 29 27 28
20 -24z m862 -193 c72 -27 82 -37 82 -83 0 -50 -13 -74 -50 -93 -27 -14 -28
-18 -17 -36 6 -11 29 -25 50 -31 75 -23 99 -115 43 -167 -50 -47 -105 -54
-480 -58 -224 -3 -352 -1 -359 6 -6 6 9 22 46 45 70 45 81 76 75 228 l-3 108
-35 29 c-19 17 -41 30 -48 31 -22 0 -53 20 -47 31 4 5 143 9 348 9 314 0 347
-2 395 -19z m490 -63 c8 -8 12 -55 12 -147 0 -125 2 -136 22 -158 12 -13 27
-23 34 -23 24 0 37 59 31 146 -4 72 -9 90 -28 111 l-24 25 22 17 c28 23 231
48 261 32 18 -9 20 -24 24 -165 l4 -156 43 -36 c23 -20 39 -40 34 -45 -4 -4
-72 -9 -151 -11 -128 -3 -144 -1 -153 15 -14 23 -60 22 -103 -4 -47 -28 -182
-30 -222 -4 -45 29 -64 87 -64 200 0 55 -4 105 -8 112 -4 6 -20 17 -36 22 -15
6 -26 17 -24 24 5 14 100 35 218 46 47 5 87 9 91 10 3 0 10 -4 17 -11z m892
-31 c0 -12 -9 -28 -21 -35 -16 -10 -19 -19 -14 -44 7 -31 36 -105 59 -148 7
-14 16 -37 20 -52 3 -16 10 -28 14 -28 11 0 51 81 58 117 4 18 13 38 20 44 9
7 14 31 14 61 0 41 -3 51 -20 55 -21 6 -24 12 -14 37 5 13 22 16 79 16 57 0
74 -3 79 -16 9 -24 7 -34 -7 -34 -8 0 -21 -8 -31 -18 -22 -25 -76 -132 -76
-151 0 -9 -9 -33 -20 -54 -11 -20 -20 -43 -20 -51 0 -15 -45 -106 -75 -151
-26 -38 -74 -83 -100 -91 -11 -4 -23 -12 -27 -18 -4 -7 -51 -12 -116 -14 -101
-3 -114 -2 -164 22 -123 58 -87 166 56 166 98 0 151 -66 95 -119 l-21 -20 36
-6 c41 -8 106 1 106 15 0 5 9 12 20 15 30 10 72 54 68 73 -3 14 -19 18 -91 20
l-89 3 -39 87 c-93 203 -136 277 -169 287 -13 4 -20 15 -20 31 l0 24 205 0
205 0 0 -23z m-543 -449 c4 -7 10 -47 13 -88 l5 -75 70 -3 c88 -3 101 -7 85
-27 -8 -9 -36 -15 -83 -17 l-72 -3 0 -134 0 -134 27 -20 c39 -29 97 -15 118
29 18 37 40 34 40 -5 0 -50 -46 -75 -187 -103 -40 -7 -65 -6 -114 6 -91 24
-111 36 -139 86 -21 39 -25 60 -28 158 -4 108 -5 114 -28 124 -42 19 -22 38
39 38 37 0 124 43 150 74 10 11 25 38 33 58 14 32 25 42 56 47 4 0 10 -5 15
-11z m-397 -92 c0 -20 -6 -25 -40 -31 -62 -10 -80 -54 -80 -191 0 -91 3 -112
22 -146 18 -31 31 -41 66 -50 31 -8 42 -15 40 -27 -3 -14 -34 -16 -274 -19
-230 -2 -273 0 -284 13 -10 12 -7 16 16 26 92 35 103 55 103 199 1 135 -10
167 -65 191 -30 14 -44 26 -44 39 0 19 9 20 270 20 l270 0 0 -24z m1711 -576
c18 -10 18 -12 3 -35 -20 -31 -28 -31 -42 -1 -7 17 -7 27 1 35 13 13 14 13 38
1z"/>
<path d="M3779 5731 c-4 -11 -32 -15 -112 -18 -83 -2 -117 -8 -147 -23 -22
-11 -49 -20 -61 -20 -11 0 -32 -9 -46 -20 -14 -11 -34 -20 -44 -20 -10 0 -21
-5 -25 -11 -3 -6 -22 -17 -40 -25 -19 -8 -34 -19 -34 -24 0 -6 -5 -10 -11 -10
-13 0 -58 -33 -111 -82 -22 -21 -43 -38 -48 -38 -5 0 -12 -9 -15 -20 -3 -11
-13 -20 -21 -20 -8 0 -14 -6 -14 -13 0 -7 -8 -22 -17 -33 -25 -28 -63 -82 -63
-90 0 -3 -9 -17 -20 -31 -11 -14 -20 -33 -20 -43 0 -10 -9 -29 -20 -43 -11
-14 -20 -36 -20 -49 0 -13 -7 -33 -15 -45 -9 -13 -18 -53 -22 -90 -3 -37 -12
-78 -19 -90 -18 -29 -18 -158 0 -209 7 -22 16 -70 20 -108 4 -38 13 -78 21
-90 8 -11 15 -29 15 -39 0 -10 10 -37 22 -60 21 -41 27 -53 56 -109 7 -16 17
-28 22 -28 4 0 10 -11 14 -24 3 -12 43 -61 88 -108 78 -79 118 -109 118 -89 0
5 -7 11 -15 15 -8 3 -15 12 -15 21 0 8 -3 15 -8 15 -12 0 -86 101 -128 175
-40 72 -68 140 -85 210 -6 22 -17 61 -25 86 -16 53 -19 279 -4 344 5 22 14 63
19 90 12 55 29 99 73 190 98 202 251 354 465 459 40 20 80 36 89 36 9 0 28 7
42 15 15 8 61 21 103 27 69 12 76 15 69 33 -5 14 -8 15 -11 6z"/>
<path d="M4315 5390 c3 -5 8 -10 11 -10 2 0 4 5 4 10 0 6 -5 10 -11 10 -5 0
-7 -4 -4 -10z"/>
<path d="M4426 5333 c-11 -12 -6 -94 8 -121 7 -15 17 -43 21 -62 4 -19 13 -42
20 -50 7 -8 15 -27 19 -42 7 -30 33 -38 42 -13 3 8 -3 34 -15 58 -20 42 -37
114 -43 186 -2 24 -9 36 -25 42 -11 4 -24 5 -27 2z"/>
<path d="M4428 4918 c-4 -73 6 -112 16 -67 31 135 31 139 7 139 -17 0 -20 -9
-23 -72z"/>
<path d="M4390 4790 c0 -33 -3 -40 -20 -40 -15 0 -20 -7 -20 -25 0 -14 2 -25
4 -25 2 0 18 21 35 47 34 50 40 83 16 83 -11 0 -15 -11 -15 -40z"/>
<path d="M4080 4620 c0 -5 4 -10 9 -10 6 0 13 5 16 10 3 6 -1 10 -9 10 -9 0
-16 -4 -16 -10z"/>
<path d="M4047 4593 c-11 -10 -8 -53 3 -53 12 0 30 41 23 53 -5 9 -17 9 -26 0z"/>
<path d="M3811 4440 c3 -59 8 -82 21 -92 9 -7 18 -26 20 -42 2 -16 9 -31 16
-34 17 -5 15 16 -8 88 -11 34 -20 85 -20 111 0 38 -4 49 -16 49 -14 0 -16 -12
-13 -80z"/>
<path d="M4316 4482 c-11 -19 7 -52 28 -51 11 0 15 3 9 6 -7 2 -13 13 -13 23
0 21 -16 35 -24 22z"/>
<path d="M4080 4381 c0 -11 5 -23 10 -26 6 -4 10 5 10 19 0 14 -4 26 -10 26
-5 0 -10 -9 -10 -19z"/>
<path d="M4390 4365 c0 -8 7 -15 16 -15 14 0 14 3 4 15 -7 8 -14 15 -16 15 -2
0 -4 -7 -4 -15z"/>
<path d="M3890 4256 c0 -9 5 -16 10 -16 6 0 10 4 10 9 0 6 -4 13 -10 16 -5 3
-10 -1 -10 -9z"/>
<path d="M4357 4264 c-4 -4 -7 -23 -7 -41 0 -38 23 -42 28 -5 4 25 -11 56 -21
46z"/>
<path d="M4280 4130 c0 -6 7 -10 15 -10 8 0 15 2 15 4 0 2 -7 6 -15 10 -8 3
-15 1 -15 -4z"/>
<path d="M4317 4093 c-3 -5 -1 -17 4 -28 7 -17 8 -17 8 8 1 27 -4 34 -12 20z"/>
<path d="M3850 3991 c0 -29 14 -49 23 -34 8 12 -4 63 -14 63 -5 0 -9 -13 -9
-29z"/>
<path d="M3074 2975 c-3 -25 -3 -56 0 -70 5 -21 12 -25 44 -25 50 0 63 10 69
57 5 36 2 42 -25 62 -17 11 -41 21 -55 21 -23 0 -27 -5 -33 -45z"/>
<path d="M3081 2801 c-14 -25 -14 -126 -1 -151 8 -16 15 -17 47 -9 46 12 73
42 73 79 0 48 -16 77 -47 84 -15 4 -36 9 -45 12 -10 3 -21 -3 -27 -15z"/>
</g>
</svg>
